<svg viewBox="0 0 266 59" fill="none" xmlns="http://www.w3.org/2000/svg">
<path d="M90.0488 28.0625L82.3954 28.267C82.3159 27.7216 82.1 27.2386 81.7477 26.8182C81.3954 26.3864 80.9352 26.0511 80.367 25.8125C79.8102 25.5625 79.1625 25.4375 78.4238 25.4375C77.4579 25.4375 76.6341 25.6307 75.9522 26.017C75.2818 26.4034 74.9522 26.9261 74.9636 27.5852C74.9522 28.0966 75.1568 28.5398 75.5772 28.9148C76.0091 29.2898 76.7761 29.5909 77.8784 29.8182L82.9238 30.7727C85.5375 31.2727 87.4806 32.1023 88.7534 33.2614C90.0375 34.4205 90.6852 35.9545 90.6966 37.8636C90.6852 39.6591 90.1511 41.2216 89.0943 42.5511C88.0488 43.8807 86.617 44.9148 84.7988 45.6534C82.9806 46.3807 80.9011 46.7443 78.5602 46.7443C74.8216 46.7443 71.8727 45.9773 69.7136 44.4432C67.5659 42.8977 66.3386 40.8295 66.0318 38.2386L74.2647 38.0341C74.4466 38.9886 74.9181 39.7159 75.6795 40.2159C76.4409 40.7159 77.4125 40.9659 78.5943 40.9659C79.6625 40.9659 80.5318 40.767 81.2022 40.3693C81.8727 39.9716 82.2136 39.4432 82.225 38.7841C82.2136 38.1932 81.9522 37.7216 81.4409 37.3693C80.9295 37.0057 80.1284 36.7216 79.0375 36.517L74.4693 35.6477C71.8443 35.1705 69.8897 34.2898 68.6056 33.0057C67.3216 31.7102 66.6852 30.0625 66.6966 28.0625C66.6852 26.3125 67.1511 24.8182 68.0943 23.5795C69.0375 22.3295 70.3784 21.375 72.117 20.7159C73.8556 20.0568 75.9068 19.7273 78.2704 19.7273C81.8159 19.7273 84.6113 20.4716 86.6568 21.9602C88.7022 23.4375 89.8329 25.4716 90.0488 28.0625ZM107.039 46.7443C104.3 46.7443 101.937 46.2045 99.948 45.125C97.9707 44.0341 96.448 42.483 95.3798 40.4716C94.323 38.4489 93.7946 36.0455 93.7946 33.2614C93.7946 30.5568 94.3287 28.1932 95.3968 26.1705C96.465 24.1364 97.9707 22.5568 99.9139 21.4318C101.857 20.2955 104.147 19.7273 106.783 19.7273C108.647 19.7273 110.351 20.017 111.897 20.5966C113.442 21.1761 114.778 22.0341 115.903 23.1705C117.028 24.3068 117.903 25.7102 118.528 27.3807C119.153 29.0398 119.465 30.9432 119.465 33.0909V35.1705H96.7093V30.3295H111.709C111.698 29.4432 111.488 28.6534 111.079 27.9602C110.67 27.267 110.107 26.7273 109.391 26.3409C108.687 25.9432 107.874 25.7443 106.954 25.7443C106.022 25.7443 105.187 25.9545 104.448 26.375C103.709 26.7841 103.124 27.3466 102.692 28.0625C102.26 28.767 102.033 29.5682 102.01 30.4659V35.392C102.01 36.4602 102.221 37.3977 102.641 38.2045C103.062 39 103.658 39.6193 104.431 40.0625C105.204 40.5057 106.124 40.7273 107.192 40.7273C107.931 40.7273 108.601 40.625 109.204 40.4205C109.806 40.2159 110.323 39.9148 110.755 39.517C111.187 39.1193 111.51 38.6307 111.726 38.0511L119.38 38.2727C119.062 39.9886 118.363 41.483 117.283 42.7557C116.215 44.017 114.812 45 113.073 45.7045C111.334 46.3977 109.323 46.7443 107.039 46.7443ZM135.944 46.7443C133.182 46.7443 130.813 46.1761 128.836 45.0398C126.87 43.9034 125.358 42.3239 124.302 40.3011C123.245 38.267 122.716 35.9148 122.716 33.2443C122.716 30.5625 123.245 28.2102 124.302 26.1875C125.37 24.1534 126.887 22.5682 128.853 21.4318C130.83 20.2955 133.188 19.7273 135.927 19.7273C138.347 19.7273 140.455 20.1648 142.251 21.0398C144.057 21.9148 145.466 23.1534 146.478 24.7557C147.501 26.3466 148.04 28.2159 148.097 30.3636H140.307C140.148 29.0227 139.694 27.9716 138.944 27.2102C138.205 26.4489 137.239 26.0682 136.046 26.0682C135.08 26.0682 134.233 26.3409 133.506 26.8864C132.779 27.4205 132.211 28.2159 131.802 29.2727C131.404 30.3182 131.205 31.6136 131.205 33.1591C131.205 34.7045 131.404 36.0114 131.802 37.0795C132.211 38.1364 132.779 38.9375 133.506 39.483C134.233 40.017 135.08 40.2841 136.046 40.2841C136.819 40.2841 137.501 40.1193 138.091 39.7898C138.694 39.4602 139.188 38.9773 139.574 38.3409C139.961 37.6932 140.205 36.9091 140.307 35.9886H148.097C148.018 38.1477 147.478 40.0341 146.478 41.6477C145.489 43.2614 144.097 44.517 142.302 45.4148C140.518 46.3011 138.398 46.7443 135.944 46.7443ZM175.221 28.0625L167.567 28.267C167.488 27.7216 167.272 27.2386 166.92 26.8182C166.567 26.3864 166.107 26.0511 165.539 25.8125C164.982 25.5625 164.334 25.4375 163.596 25.4375C162.63 25.4375 161.806 25.6307 161.124 26.017C160.454 26.4034 160.124 26.9261 160.135 27.5852C160.124 28.0966 160.329 28.5398 160.749 28.9148C161.181 29.2898 161.948 29.5909 163.05 29.8182L168.096 30.7727C170.709 31.2727 172.653 32.1023 173.925 33.2614C175.209 34.4205 175.857 35.9545 175.868 37.8636C175.857 39.6591 175.323 41.2216 174.266 42.5511C173.221 43.8807 171.789 44.9148 169.971 45.6534C168.153 46.3807 166.073 46.7443 163.732 46.7443C159.993 46.7443 157.045 45.9773 154.885 44.4432C152.738 42.8977 151.51 40.8295 151.204 38.2386L159.437 38.0341C159.618 38.9886 160.09 39.7159 160.851 40.2159C161.613 40.7159 162.584 40.9659 163.766 40.9659C164.834 40.9659 165.704 40.767 166.374 40.3693C167.045 39.9716 167.385 39.4432 167.397 38.7841C167.385 38.1932 167.124 37.7216 166.613 37.3693C166.101 37.0057 165.3 36.7216 164.209 36.517L159.641 35.6477C157.016 35.1705 155.062 34.2898 153.778 33.0057C152.493 31.7102 151.857 30.0625 151.868 28.0625C151.857 26.3125 152.323 24.8182 153.266 23.5795C154.209 22.3295 155.55 21.375 157.289 20.7159C159.028 20.0568 161.079 19.7273 163.442 19.7273C166.988 19.7273 169.783 20.4716 171.829 21.9602C173.874 23.4375 175.005 25.4716 175.221 28.0625ZM185.069 56.0682C184.069 56.0682 183.126 55.9886 182.239 55.8295C181.353 55.6818 180.591 55.483 179.955 55.233L181.796 49.1818C182.614 49.4545 183.353 49.6136 184.012 49.6591C184.682 49.7045 185.256 49.5966 185.733 49.3352C186.222 49.0852 186.597 48.6364 186.858 47.9886L187.182 47.2045L177.876 20.0682H186.603L191.427 38.75H191.699L196.591 20.0682H205.37L195.501 48.7557C195.023 50.1875 194.347 51.4489 193.472 52.5398C192.608 53.642 191.489 54.5057 190.114 55.1307C188.751 55.7557 187.069 56.0682 185.069 56.0682ZM216.901 31.3182V46.25H208.566V20.0682H216.492V24.875H216.782C217.361 23.2727 218.35 22.017 219.748 21.108C221.145 20.1875 222.81 19.7273 224.742 19.7273C226.583 19.7273 228.18 20.142 229.532 20.9716C230.895 21.7898 231.952 22.9375 232.702 24.4148C233.464 25.8807 233.839 27.5966 233.827 29.5625V46.25H225.492V31.1989C225.503 29.7443 225.134 28.608 224.384 27.7898C223.645 26.9716 222.617 26.5625 221.299 26.5625C220.424 26.5625 219.651 26.7557 218.981 27.142C218.322 27.517 217.81 28.0568 217.447 28.7614C217.094 29.4659 216.912 30.3182 216.901 31.3182ZM251.209 46.7443C248.448 46.7443 246.079 46.1761 244.101 45.0398C242.135 43.9034 240.624 42.3239 239.567 40.3011C238.51 38.267 237.982 35.9148 237.982 33.2443C237.982 30.5625 238.51 28.2102 239.567 26.1875C240.635 24.1534 242.153 22.5682 244.118 21.4318C246.096 20.2955 248.454 19.7273 251.192 19.7273C253.613 19.7273 255.721 20.1648 257.516 21.0398C259.323 21.9148 260.732 23.1534 261.743 24.7557C262.766 26.3466 263.306 28.2159 263.363 30.3636H255.573C255.414 29.0227 254.959 27.9716 254.209 27.2102C253.471 26.4489 252.505 26.0682 251.312 26.0682C250.346 26.0682 249.499 26.3409 248.772 26.8864C248.045 27.4205 247.476 28.2159 247.067 29.2727C246.67 30.3182 246.471 31.6136 246.471 33.1591C246.471 34.7045 246.67 36.0114 247.067 37.0795C247.476 38.1364 248.045 38.9375 248.772 39.483C249.499 40.017 250.346 40.2841 251.312 40.2841C252.084 40.2841 252.766 40.1193 253.357 39.7898C253.959 39.4602 254.454 38.9773 254.84 38.3409C255.226 37.6932 255.471 36.9091 255.573 35.9886H263.363C263.283 38.1477 262.743 40.0341 261.743 41.6477C260.755 43.2614 259.363 44.517 257.567 45.4148C255.783 46.3011 253.664 46.7443 251.209 46.7443Z" fill="black"/>
<circle cx="11.125" cy="38.5" r="11" fill="black"/>
<circle cx="48.375" cy="35.5" r="8" fill="black"/>
<circle cx="24.125" cy="24.25" r="7" fill="black"/>
<path d="M2.625 38.5C47 38.5 37.5 31.5 24 26.5" stroke="black" stroke-width="5"/>
<path d="M34.75 33.25C35.5 33.8333 38.3 35 43.5 35" stroke="black" stroke-width="5"/>
<path d="M30 36.75C35.75 33.75 32.875 31.25 30 28.5" stroke="black" stroke-width="4"/>
</svg>
